<?xml version="1.0" encoding="utf-8"?>
<!-- Generator: Adobe Illustrator 19.2.1, SVG Export Plug-In . SVG Version: 6.00 Build 0)  -->
<svg version="1.1" id="layer" xmlns="http://www.w3.org/2000/svg" xmlns:xlink="http://www.w3.org/1999/xlink" x="0px" y="0px"
	 viewBox="0 0 652 652" style="enable-background:new 0 0 652 652;" xml:space="preserve">
<style type="text/css">
	.st0{fill:#F0853D;}
	.st1{fill:#41C5E7;}
	.st2{fill:#FCC99C;}
	.st3{fill:#40C4E8;}
</style>
<path class="st0" d="M359.8,527.3c0.1-7.5,6.4-13.7,14-13.6c7.6,0.1,13.7,6.3,13.6,13.8v0.2c-0.1,7.5-6.4,13.7-14,13.6
	C365.9,541.2,359.7,534.9,359.8,527.3 M360.7,501H345v75.1h15.6v-29.1c3.8,5.6,10.3,8.2,17.3,8.2c14.3,0,25.2-12,25.2-27.7
	s-10.9-27.8-25.2-27.8c-7.1,0-13.5,2.8-17.3,8.3V501z M333.7,501H318V554h15.7V501z M316.8,485.7c0,5,4.1,9.1,9.2,9.1
	c5,0,9.2-4.1,9.2-9.1c0-5-4.1-9.1-9.2-9.1C320.9,476.6,316.8,480.6,316.8,485.7 M273.6,478.9h-15.6v74.9h15.6v-18.4l2.7-2.7
	l16.3,21.1h18.8l-23.3-29.4l22-23.4h-18.7l-17.8,18.8V478.9z M208.6,529.5l-14.1,7.4c4.8,11.9,15.8,18.4,28.2,18.4
	c14,0,26.6-8.6,26.6-23.6c0-10.1-5.7-17-17.8-21.4l-9.7-3.8c-4.6-1.7-7.3-3.8-7.3-7.4c0-4,3.4-6.6,8.4-6.6c5.6,0,9.6,4,11.9,9
	l13.5-7.7c-4.6-10-14.6-16.4-25.7-16.2c-14.2,0-24.6,8.9-24.6,22.5c0,10.8,7,17.5,17.9,21.4l9.1,3.2c5.3,1.9,7.8,4.4,7.8,8.1
	c0,4.8-4.4,7.5-9.6,7.5C216.5,540.2,211.2,535.9,208.6,529.5"/>
<path class="st1" d="M531.5,501l-0.1,52.9h15.8V501H531.5z M442.6,494.1c12.4,0,22.5,10,22.5,22.4c0,12.4-10.1,22.4-22.5,22.4h-9
	v-44.8H442.6z M443,479h-25.6V554H443c21.2,0,38.4-16.4,38.4-37.5C481.4,495.4,464.1,479,443,479 M33.5,553.9h16.2l-0.1-74.9
	L33.4,479V508l-30.2,0.1l-0.1-29h-16.2L-13,554H3.2v-30.5l30.2-0.1L33.5,553.9z M101.1,527.8c-0.2,7.5-6.5,13.5-14,13.3
	c-7.4-0.1-13.5-6.2-13.4-13.7v-0.3c0.2-7.5,6.5-13.5,14-13.3C95.2,514,101.3,520.3,101.1,527.8 M115.9,527.3
	c0-15.7-12.3-27.8-28.8-27.8c-16.5,0.1-28.8,12.2-28.8,27.9c0,15.7,12.3,27.8,28.8,27.8S115.9,543.1,115.9,527.3 M139,527.3
	c0-7.6,6.3-13.8,13.9-13.7h0.2c7.5,0,13.6,6.2,13.6,13.7v0.2c0,7.6-6.3,13.8-13.9,13.7C145.1,541.2,138.9,534.9,139,527.3
	 M139.7,500.9h-15.6l0.1,75.1h15.6V547c3.8,5.6,10.3,8.2,17.3,8.2c14.3,0,25.2-12,25.2-27.8c0-15.7-11-27.7-25.3-27.7
	c-7.1,0-13.5,2.8-17.3,8.3V500.9z M519.2,515.6c1.4-0.1,2.6,0.2,3.9,0.6v-15.9c-0.9-0.3-1.7-0.4-2.7-0.4c-6.6-0.1-12.7,3.8-15.3,9.9
	V501h-15.5v52.8h15.6v-21.5C505.2,522,510.4,515.6,519.2,515.6 M523.1,516.2L523.1,516.2C523.1,516.2,523.1,516.2,523.1,516.2
	L523.1,516.2z M548.5,485.7c0-5-4.1-9.1-9.2-9.1c-5.1,0-9.2,4.1-9.2,9.1c0,5,4.1,9.1,9.2,9.1C544.4,494.8,548.5,490.7,548.5,485.7
	 M589.2,554l21.6-52.9h-16.1l-12.4,33.4L569.8,501h-16.6l21.6,52.9H589.2z M650.8,521.5h-23.9c0.7-5,5.7-9.7,12-9.7
	C645.2,511.9,650.1,515.8,650.8,521.5 M666,527.8c0-16.6-11.1-28.3-27.1-28.3c-15.7,0-27.6,12-27.6,27.9c0,16.4,11.6,27.9,28.2,27.9
	c11.7,0,20.3-5.3,24.7-14l-13.4-5.3c-2.5,4-5.6,6.5-11.5,6.5c-6.5,0-12.2-4.5-12.8-10.7h39.1C666,530.4,666,529.1,666,527.8"/>
<path class="st0" d="M416,339.9l-59.6-59.5c-2-2.1-2-5.4,0-7.5l30.7-30.6c2-2.1,5.4-2.1,7.4,0l59.6,59.6c2,2.1,2,5.4,0,7.5
	l-30.7,30.6C421.4,342.1,418.2,342.1,416,339.9"/>
<path class="st2" d="M360.7,284.7v10c0,0.9-0.4,1.8-1.1,2.5l-29.1,29.1c-1.3,1.3-1.3,3.6,0,5l34,34c1.3,1.3,3.6,1.3,5,0l29.1-29.1
	c0.7-0.7,1.5-1,2.5-1h9.9L360.7,284.7z M376.5,336.5l-8.1,8.1c-1,1-2.4,1-3.3,0l-13.7-13.7c-1-1-1-2.4,0-3.3l8.1-8.1
	c1-1,2.4-1,3.3,0l13.7,13.7C377.4,334,377.4,335.6,376.5,336.5"/>
<path class="st3" d="M310.6,109.3c-17-15.9-42.4-33.1-79.2-33.1c-59.2,0.1-107.2,48.1-107.1,107.4v0.6c0,6.1,0.7,12.2,1.7,18.1
	c3.4,16.2,10.8,29.9,14.8,36.4c5.8,8.2,15.9,21,33.3,38.7c1,1.1,1.9,2,2.7,3l133.5,133.5c1.9,1.9,5.2,1.9,7.1,0l27.9-27.9
	c1.9-1.9,1.9-5.2,0-7.1L228.6,262.3c-9.3-9.4-20.6-21.1-27.3-27.9c-1.4-1.4-6.6-7.1-10.5-12.9c-5.3-8-11.3-19-13.6-30.5
	c-1.7-10-1.5-21.5,3-33.4c1.3-3.3,2.9-5.9,3.3-6.7c2-3.1,4.3-5.9,7-8.6c10.9-10.9,25.6-17,40.9-17c28.6,0,45,18.2,58.1,33
	c2.3,2.6,4.5,5.1,6.7,7.3l13.8,14.4c1.9,2,5.1,2,7.1,0.1l0.1-0.1l14.1-14.1c2.5-2.5,5-5.2,7.6-8.2c13.1-14.5,29.4-32.4,57.5-32.4
	c26.4,0,48.8,17.8,55.7,42.1c0,0.1,0.3,1,0.4,1.3c1,4.4,1.1,9,1.1,9c0.1,8.2-1.1,15.5-3,21.9c-0.7,2-2.6,6.4-2.8,6.8
	c-5.4,11.2-9.7,16-9.7,16c-2.8,3.2-7.3,8.3-10.8,12.1l-20.2,20.2l34.7,34.7l30.3-30.3c20.2-20,31.5-47.3,31.4-75.7
	c-0.3-59.2-48.1-107-107.3-107.1c-36.8,0-62,17.3-78.9,33.1C315.6,111.1,312.6,111.1,310.6,109.3"/>
</svg>
