<svg width="23" height="12" viewBox="0 0 23 12" fill="none" xmlns="http://www.w3.org/2000/svg">
<path d="M0.892687 4.64189H19.7976L16.6659 1.52539C16.3165 1.17761 16.3151 0.612414 16.6629 0.262978C17.0107 -0.086503 17.576 -0.0877971 17.9254 0.259943L22.5898 4.90183C22.5901 4.9021 22.5903 4.90241 22.5906 4.90268C22.9391 5.25047 22.9402 5.81749 22.5907 6.16644C22.5904 6.1667 22.5901 6.16702 22.5899 6.16728L17.9255 10.8092C17.5761 11.1569 17.0108 11.1557 16.663 10.8061C16.3152 10.4567 16.3166 9.89151 16.666 9.54372L19.7976 6.42723H0.892687C0.399665 6.42723 1.60796e-05 6.02758 1.60796e-05 5.53456C1.60796e-05 5.04154 0.399665 4.64189 0.892687 4.64189Z" fill="#979797"/>
</svg>
