<svg width="70" height="43" viewBox="0 0 70 43" fill="none" xmlns="http://www.w3.org/2000/svg">
<g clip-path="url(#clip0_11_182)">
<path d="M64.9451 1.35818C66.1475 0.824515 67.3295 0.299282 68.6643 0.0429884C68.9503 -0.0118112 69.3602 -0.0758846 69.5621 0.279048C69.9151 0.896176 69.9533 1.57148 69.9847 2.38673C70.0161 3.21968 70.0042 3.92196 69.8939 4.82573C69.8489 5.19331 69.6792 6.02795 69.4578 6.52536C69.2397 7.01519 68.9741 7.46623 68.5116 7.95437C68.016 8.47707 65.2124 10.7626 63.9887 11.6563C63.1342 12.2903 62.2025 12.8383 61.4456 13.5878C60.9093 14.1181 60.3085 14.6239 59.9894 15.3237C59.8282 15.6499 59.8409 16.0091 59.8146 16.4416C59.7824 16.966 59.8333 17.3563 59.8045 17.8782C59.7994 17.9751 59.8045 18.2677 59.8045 18.2677C59.4888 17.766 59.118 16.9575 58.8074 16.4508C57.6457 14.4789 56.5315 12.5854 55.0313 10.8436C54.6935 10.4515 54.3668 9.97015 53.895 9.81334C53.9731 10.1118 54.1768 10.3521 54.3516 10.5999C54.8565 11.2516 55.369 11.8991 55.8238 12.587C56.327 13.2708 57.9766 16.2763 58.5562 17.1986C59.4888 18.6833 59.964 19.942 60.289 21.4368C60.311 21.919 59.8952 22.3751 59.4158 22.4189C58.7947 22.5572 58.1684 22.4054 57.549 22.3169C55.862 22.0758 54.3821 21.7833 52.8521 21.3137C51.8933 21.0194 50.9293 20.7117 50.0459 20.2278C49.3594 19.8518 48.6721 19.4648 48.079 18.9463C47.3509 18.3098 46.947 17.2088 46.913 16.88C46.8485 16.2156 47.0615 15.5622 47.3127 14.9561C47.5774 14.4578 47.7251 13.9157 47.8643 13.3703C48.0849 12.5036 48.23 11.6285 48.3547 10.7491C48.5609 10.0865 48.9589 9.49129 49.4502 9.00315C50.051 8.51332 50.6365 8.00411 51.1856 7.45611C51.2526 7.38951 51.2797 7.32628 51.2594 7.29593C51.2526 7.28497 51.2382 7.27232 51.2212 7.27822C51.2042 7.28413 51.1508 7.32628 51.1372 7.33724C50.9581 7.48478 50.903 7.51175 50.7613 7.61967C50.4846 7.82791 50.1919 8.01591 49.8838 8.17357C49.6666 8.29581 49.8058 7.91727 49.8338 7.80852C50.0035 7.41986 50.051 7.00338 50.1418 6.59365C50.3098 5.83657 50.4329 5.02891 50.9675 4.44213C51.3595 3.97001 51.8958 3.6547 52.41 3.33265C53.4096 2.72395 54.411 2.08912 55.5124 1.68445C56.0597 1.48295 56.6113 1.27472 57.2044 1.22413C58.1209 1.14657 58.9822 1.46946 59.8189 1.77297C60.8618 2.13718 61.9895 2.50307 63.0994 2.21811C63.7393 1.98627 64.3248 1.63302 64.9451 1.35818Z" fill="#2196F3"/>
<path d="M45.4832 16.2882C45.9338 16.0454 46.3284 15.7166 46.7586 15.4409C46.1671 16.2663 46.3089 17.3817 46.7187 18.2534C47.2032 19.3781 48.2869 20.0846 49.3467 20.6098C51.2076 21.5321 53.2416 22.0548 55.2714 22.4755C56.1556 22.6863 57.0551 22.8448 57.9622 22.9291C58.0734 22.951 58.1888 22.9662 58.3008 22.9898C58.4128 23.0134 58.5248 23.0159 58.5842 23.1154C58.6631 23.2494 58.6088 23.4071 58.5876 23.5588C58.4934 24.2274 58.322 24.8842 58.1769 25.546C57.8434 27.0652 57.476 28.5751 56.6783 29.9105C56.3313 30.5058 55.8086 30.9678 55.3155 31.4416C54.2396 32.4271 53.021 33.25 51.9569 34.2473C52.046 34.0315 52.1105 33.8013 52.2573 33.615C52.5093 33.2719 52.7121 32.8959 52.971 32.5569C53.5811 31.7324 53.8221 30.7123 54.0011 29.7234C54.0486 29.4106 54.1411 29.0936 54.0775 28.7758C53.9536 28.9975 53.8755 29.2395 53.8102 29.4831C53.5123 30.5547 53.0872 31.5942 52.5093 32.5477C51.9841 33.4455 51.4588 34.3451 50.9972 35.2784C50.7494 35.7454 50.9514 36.2808 51.0922 36.7487C51.6446 38.1912 52.3583 39.6244 53.4801 40.7162C53.6303 40.8814 53.7593 40.9834 53.9103 41.2305C54.0172 41.4058 54.0639 41.679 54.002 41.8737C53.912 42.1545 53.7152 42.4057 53.4436 42.5482C53.1042 42.7286 52.5993 42.716 52.2276 42.7657C51.8186 42.8137 51.3969 42.7598 50.9743 42.9276C50.6832 43.0431 50.0247 43.0026 49.7209 42.9276C49.4384 42.8576 49.0616 42.732 48.8087 42.587C48.135 42.2 47.8507 42.0019 47.4994 41.5129C47.0912 40.9219 46.9292 40.2112 46.6559 39.5578C46.4692 38.9879 45.7454 36.5995 45.4841 36.0043C45.176 35.3113 44.8714 34.5938 44.3495 34.0289C43.6664 33.2247 43.2693 32.2222 42.9816 31.2207C42.7517 30.2377 42.587 29.2268 42.6439 28.2151C42.6066 28.2177 42.3494 28.8913 42.307 29.2336C42.2256 29.8869 41.9905 30.5496 42.1458 31.2114C42.3724 32.1953 42.9171 33.0611 43.3983 33.9371C41.6027 34.3704 39.1741 34.2861 37.9428 34.1158C35.5125 33.7794 33.1586 33.0265 30.9065 32.068C29.0108 31.2333 27.2755 30.2402 25.306 29.5834C25.1617 29.5354 24.9284 29.4848 24.7799 29.4587C24.925 28.8702 25.1498 28.3028 25.2576 27.7051C25.3569 27.3476 25.3781 26.9303 25.4129 26.4877C25.3331 26.4944 25.076 27.1453 25.0192 27.2996C24.5635 28.5431 24.0934 29.5 23.3288 30.5901C22.3869 31.7231 21.2057 32.7281 19.7776 33.1842C19.2667 33.3587 18.7262 33.4093 18.1933 33.4624C17.573 33.6057 16.9603 33.8342 16.4376 34.2018C15.9616 34.5365 15.7358 35.1174 15.69 35.678C15.7129 36.2799 16.144 36.7344 16.5148 37.166C17.0061 37.714 17.4975 38.2603 18.0015 38.7982C18.3842 39.2071 18.8 39.6548 18.8874 40.2314C18.9044 40.5543 18.9612 40.9345 18.7143 41.1917C18.2094 41.829 17.3804 42.0457 16.615 42.1865C15.8996 42.2413 15.1563 42.372 14.463 42.1241C14.0031 41.9504 13.6976 41.5466 13.4625 41.1369C12.8278 40.0105 12.6275 38.6945 11.9317 37.596C11.3835 36.7318 10.686 35.9073 10.4781 34.8813C10.3381 34.3249 10.6326 33.7996 10.9245 33.3486C11.1739 32.9338 11.5685 32.6278 11.8112 32.2088C12.0183 31.778 12.0556 31.294 12.126 30.8278C12.2083 30.284 12.2431 29.7293 12.1812 29.1855C12.1006 28.4799 11.7281 27.8088 11.7908 27.0913C11.8188 26.7777 12.1286 26.6192 12.3492 26.4396C12.978 25.927 13.6628 25.4684 14.2161 24.8724C13.7027 25.0705 13.2877 25.4431 12.8414 25.7534C12.2414 26.158 11.672 26.6049 11.0772 27.0171C10.5307 27.3704 10.0139 27.7607 9.44032 28.0786C7.23998 29.2976 4.99297 30.1095 2.55589 30.3599C1.69969 30.4484 0.786628 30.4189 0.000854492 30.0438C0.409864 29.8237 0.870636 29.7284 1.30765 29.5801C2.8461 29.0548 4.38455 28.5102 5.84239 27.786C6.80382 27.2726 7.65748 26.5863 8.48568 25.8849C11.1281 23.6465 13.7315 21.3239 16.7354 19.5618C17.3439 19.2044 17.9828 18.8925 18.6608 18.6817C20.3733 18.1497 22.1629 17.9777 23.9423 17.8352C25.1566 17.7383 26.3752 17.7341 27.5912 17.7653C28.4202 17.7863 32.8166 18.0637 33.616 18.0772C34.2668 18.0882 40.0609 17.8403 41.5705 17.5764C42.9112 17.2754 44.2774 16.9677 45.4841 16.2882H45.4832Z" fill="#2196F3"/>
<path d="M54.3872 32.6151C54.8641 32.7062 55.33 32.8427 55.795 32.9818C56.5129 33.1968 57.3275 33.3798 57.8384 33.9556C58.3271 34.507 58.4162 35.2868 58.6538 35.9672C58.72 36.2041 58.7828 36.5092 58.5851 36.704C58.1617 37.1871 57.5235 37.2807 56.8837 37.3801C56.0521 37.5091 55.263 38.074 54.4178 37.8093C53.8951 37.6457 53.5989 37.1365 53.2137 36.7765C52.7699 36.355 52.3575 35.7985 51.7643 35.5819C51.6396 35.5473 51.4766 35.5001 51.5624 35.3458C52.2446 34.2068 53.3231 33.3014 54.3872 32.6143V32.6151Z" fill="#2196F3"/>
<path d="M17.4542 34.056C17.7257 33.9329 18.0032 33.7668 18.3121 33.7845C19.1573 34.0037 20.0245 34.1479 20.8917 34.2474C21.2371 34.3215 21.5977 34.233 21.9414 34.3114C22.2503 34.5121 22.3742 34.899 22.3665 35.2515C22.3937 36.0743 22.1714 36.9511 21.5791 37.5539C21.3067 37.8591 21.0199 38.2022 20.6126 38.3236C20.3028 38.3472 19.9846 38.3641 19.6783 38.3025C18.8662 38.0623 18.1025 37.6888 17.3388 37.3313C16.8916 37.1408 16.5632 36.7622 16.3222 36.3542C16.1729 36.0186 16.0167 35.6249 16.1678 35.2633C16.3867 34.6933 16.9137 34.3038 17.4542 34.056Z" fill="#2196F3"/>
</g>
<defs>
<clipPath id="clip0_11_182">
<rect width="70" height="43" fill="white"/>
</clipPath>
</defs>
</svg>
